<mxfile host="app.diagrams.net" modified="2023-07-27T11:14:58.487Z" agent="Mozilla/5.0 (Windows NT 10.0; Win64; x64) AppleWebKit/537.36 (KHTML, like Gecko) Chrome/115.0.0.0 Safari/537.36" etag="bCMUhLhSYLfi8I4sXn3-" version="21.6.5" type="device">
  <diagram name="Página-1" id="0Suhuodj3YVB-7kr4Ami">
    <mxGraphModel dx="1050" dy="574" grid="1" gridSize="10" guides="1" tooltips="1" connect="1" arrows="1" fold="1" page="1" pageScale="1" pageWidth="827" pageHeight="1169" math="0" shadow="0">
      <root>
        <mxCell id="0" />
        <mxCell id="1" parent="0" />
        <mxCell id="mcPhJXjr74Fi777epzgo-8" style="edgeStyle=orthogonalEdgeStyle;rounded=0;orthogonalLoop=1;jettySize=auto;html=1;endArrow=none;endFill=0;" parent="1" source="mcPhJXjr74Fi777epzgo-1" target="mcPhJXjr74Fi777epzgo-3" edge="1">
          <mxGeometry relative="1" as="geometry" />
        </mxCell>
        <mxCell id="mcPhJXjr74Fi777epzgo-1" value="Pessoa" style="rounded=0;whiteSpace=wrap;html=1;" parent="1" vertex="1">
          <mxGeometry x="160" y="370" width="120" height="60" as="geometry" />
        </mxCell>
        <mxCell id="mcPhJXjr74Fi777epzgo-2" value="CNH" style="rounded=0;whiteSpace=wrap;html=1;" parent="1" vertex="1">
          <mxGeometry x="550" y="270" width="120" height="60" as="geometry" />
        </mxCell>
        <mxCell id="mcPhJXjr74Fi777epzgo-5" style="edgeStyle=orthogonalEdgeStyle;rounded=0;orthogonalLoop=1;jettySize=auto;html=1;entryX=0;entryY=0.5;entryDx=0;entryDy=0;endArrow=none;endFill=0;" parent="1" source="mcPhJXjr74Fi777epzgo-3" target="mcPhJXjr74Fi777epzgo-4" edge="1">
          <mxGeometry relative="1" as="geometry">
            <Array as="points">
              <mxPoint x="500" y="400" />
              <mxPoint x="500" y="500" />
            </Array>
          </mxGeometry>
        </mxCell>
        <mxCell id="mcPhJXjr74Fi777epzgo-6" style="edgeStyle=orthogonalEdgeStyle;rounded=0;orthogonalLoop=1;jettySize=auto;html=1;exitX=1;exitY=0.5;exitDx=0;exitDy=0;endArrow=none;endFill=0;" parent="1" source="mcPhJXjr74Fi777epzgo-3" target="mcPhJXjr74Fi777epzgo-2" edge="1">
          <mxGeometry relative="1" as="geometry">
            <Array as="points">
              <mxPoint x="500" y="400" />
              <mxPoint x="500" y="300" />
            </Array>
          </mxGeometry>
        </mxCell>
        <mxCell id="mcPhJXjr74Fi777epzgo-13" style="edgeStyle=orthogonalEdgeStyle;rounded=0;orthogonalLoop=1;jettySize=auto;html=1;exitX=1;exitY=0.5;exitDx=0;exitDy=0;entryX=0;entryY=0.5;entryDx=0;entryDy=0;endArrow=none;endFill=0;" parent="1" source="mcPhJXjr74Fi777epzgo-3" target="mcPhJXjr74Fi777epzgo-12" edge="1">
          <mxGeometry relative="1" as="geometry" />
        </mxCell>
        <mxCell id="mcPhJXjr74Fi777epzgo-3" value="Possui" style="rhombus;whiteSpace=wrap;html=1;" parent="1" vertex="1">
          <mxGeometry x="374" y="360" width="80" height="80" as="geometry" />
        </mxCell>
        <mxCell id="mcPhJXjr74Fi777epzgo-4" value="Email" style="rounded=0;whiteSpace=wrap;html=1;" parent="1" vertex="1">
          <mxGeometry x="550" y="470" width="120" height="60" as="geometry" />
        </mxCell>
        <mxCell id="mcPhJXjr74Fi777epzgo-7" value="&lt;div&gt;Construa a modelagem que represente pessoas e seus dados, observando que:&lt;/div&gt;&lt;div&gt;&lt;br&gt;&lt;/div&gt;&lt;div&gt;- uma pessoa pode ter vários telefones e vários emails, porém, pode possuir somente uma CNH.&lt;/div&gt;&lt;div&gt;&lt;br&gt;&lt;/div&gt;&lt;div&gt;DQL&lt;/div&gt;&lt;div&gt;&lt;br&gt;&lt;/div&gt;&lt;div&gt;- listar as pessoas em ordem alfabética reversa, mostrando seus telefones, seus e-mails e suas CNHs&lt;/div&gt;" style="text;html=1;align=center;verticalAlign=middle;resizable=0;points=[];autosize=1;strokeColor=none;fillColor=none;" parent="1" vertex="1">
          <mxGeometry x="120" y="100" width="570" height="110" as="geometry" />
        </mxCell>
        <mxCell id="mcPhJXjr74Fi777epzgo-9" value="N" style="text;html=1;align=center;verticalAlign=middle;resizable=0;points=[];autosize=1;strokeColor=none;fillColor=none;fontSize=18;" parent="1" vertex="1">
          <mxGeometry x="510" y="500" width="40" height="40" as="geometry" />
        </mxCell>
        <mxCell id="mcPhJXjr74Fi777epzgo-10" value="1" style="text;html=1;align=center;verticalAlign=middle;resizable=0;points=[];autosize=1;strokeColor=none;fillColor=none;fontSize=18;" parent="1" vertex="1">
          <mxGeometry x="285" y="400" width="30" height="40" as="geometry" />
        </mxCell>
        <mxCell id="mcPhJXjr74Fi777epzgo-11" value="1" style="text;html=1;align=center;verticalAlign=middle;resizable=0;points=[];autosize=1;strokeColor=none;fillColor=none;fontSize=18;" parent="1" vertex="1">
          <mxGeometry x="520" y="300" width="30" height="40" as="geometry" />
        </mxCell>
        <mxCell id="mcPhJXjr74Fi777epzgo-12" value="Telefone" style="rounded=0;whiteSpace=wrap;html=1;" parent="1" vertex="1">
          <mxGeometry x="550" y="370" width="120" height="60" as="geometry" />
        </mxCell>
        <mxCell id="mcPhJXjr74Fi777epzgo-14" value="N" style="text;html=1;align=center;verticalAlign=middle;resizable=0;points=[];autosize=1;strokeColor=none;fillColor=none;fontSize=18;" parent="1" vertex="1">
          <mxGeometry x="510" y="400" width="40" height="40" as="geometry" />
        </mxCell>
        <mxCell id="rzyrujMYmJVa373s-Boa-1" value="Pessoa" style="shape=table;startSize=30;container=1;collapsible=1;childLayout=tableLayout;fixedRows=1;rowLines=0;fontStyle=1;align=center;resizeLast=1;html=1;" parent="1" vertex="1">
          <mxGeometry x="140" y="585" width="180" height="120" as="geometry" />
        </mxCell>
        <mxCell id="rzyrujMYmJVa373s-Boa-2" value="" style="shape=tableRow;horizontal=0;startSize=0;swimlaneHead=0;swimlaneBody=0;fillColor=none;collapsible=0;dropTarget=0;points=[[0,0.5],[1,0.5]];portConstraint=eastwest;top=0;left=0;right=0;bottom=1;" parent="rzyrujMYmJVa373s-Boa-1" vertex="1">
          <mxGeometry y="30" width="180" height="30" as="geometry" />
        </mxCell>
        <mxCell id="rzyrujMYmJVa373s-Boa-3" value="PK" style="shape=partialRectangle;connectable=0;fillColor=none;top=0;left=0;bottom=0;right=0;fontStyle=1;overflow=hidden;whiteSpace=wrap;html=1;" parent="rzyrujMYmJVa373s-Boa-2" vertex="1">
          <mxGeometry width="30" height="30" as="geometry">
            <mxRectangle width="30" height="30" as="alternateBounds" />
          </mxGeometry>
        </mxCell>
        <mxCell id="rzyrujMYmJVa373s-Boa-4" value="PessoaID" style="shape=partialRectangle;connectable=0;fillColor=none;top=0;left=0;bottom=0;right=0;align=left;spacingLeft=6;fontStyle=5;overflow=hidden;whiteSpace=wrap;html=1;" parent="rzyrujMYmJVa373s-Boa-2" vertex="1">
          <mxGeometry x="30" width="150" height="30" as="geometry">
            <mxRectangle width="150" height="30" as="alternateBounds" />
          </mxGeometry>
        </mxCell>
        <mxCell id="rzyrujMYmJVa373s-Boa-87" style="shape=tableRow;horizontal=0;startSize=0;swimlaneHead=0;swimlaneBody=0;fillColor=none;collapsible=0;dropTarget=0;points=[[0,0.5],[1,0.5]];portConstraint=eastwest;top=0;left=0;right=0;bottom=1;" parent="rzyrujMYmJVa373s-Boa-1" vertex="1">
          <mxGeometry y="60" width="180" height="30" as="geometry" />
        </mxCell>
        <mxCell id="rzyrujMYmJVa373s-Boa-88" style="shape=partialRectangle;connectable=0;fillColor=none;top=0;left=0;bottom=0;right=0;fontStyle=1;overflow=hidden;whiteSpace=wrap;html=1;" parent="rzyrujMYmJVa373s-Boa-87" vertex="1">
          <mxGeometry width="30" height="30" as="geometry">
            <mxRectangle width="30" height="30" as="alternateBounds" />
          </mxGeometry>
        </mxCell>
        <mxCell id="rzyrujMYmJVa373s-Boa-89" value="NomePessoa" style="shape=partialRectangle;connectable=0;fillColor=none;top=0;left=0;bottom=0;right=0;align=left;spacingLeft=6;fontStyle=5;overflow=hidden;whiteSpace=wrap;html=1;" parent="rzyrujMYmJVa373s-Boa-87" vertex="1">
          <mxGeometry x="30" width="150" height="30" as="geometry">
            <mxRectangle width="150" height="30" as="alternateBounds" />
          </mxGeometry>
        </mxCell>
        <mxCell id="rzyrujMYmJVa373s-Boa-5" value="" style="shape=tableRow;horizontal=0;startSize=0;swimlaneHead=0;swimlaneBody=0;fillColor=none;collapsible=0;dropTarget=0;points=[[0,0.5],[1,0.5]];portConstraint=eastwest;top=0;left=0;right=0;bottom=0;" parent="rzyrujMYmJVa373s-Boa-1" vertex="1">
          <mxGeometry y="90" width="180" height="30" as="geometry" />
        </mxCell>
        <mxCell id="rzyrujMYmJVa373s-Boa-6" value="" style="shape=partialRectangle;connectable=0;fillColor=none;top=0;left=0;bottom=0;right=0;editable=1;overflow=hidden;whiteSpace=wrap;html=1;" parent="rzyrujMYmJVa373s-Boa-5" vertex="1">
          <mxGeometry width="30" height="30" as="geometry">
            <mxRectangle width="30" height="30" as="alternateBounds" />
          </mxGeometry>
        </mxCell>
        <mxCell id="rzyrujMYmJVa373s-Boa-7" value="CNH" style="shape=partialRectangle;connectable=0;fillColor=none;top=0;left=0;bottom=0;right=0;align=left;spacingLeft=6;overflow=hidden;whiteSpace=wrap;html=1;" parent="rzyrujMYmJVa373s-Boa-5" vertex="1">
          <mxGeometry x="30" width="150" height="30" as="geometry">
            <mxRectangle width="150" height="30" as="alternateBounds" />
          </mxGeometry>
        </mxCell>
        <mxCell id="rzyrujMYmJVa373s-Boa-14" value="Telefone" style="shape=table;startSize=30;container=1;collapsible=1;childLayout=tableLayout;fixedRows=1;rowLines=0;fontStyle=1;align=center;resizeLast=1;html=1;" parent="1" vertex="1">
          <mxGeometry x="470" y="585" width="180" height="120" as="geometry" />
        </mxCell>
        <mxCell id="rzyrujMYmJVa373s-Boa-15" value="" style="shape=tableRow;horizontal=0;startSize=0;swimlaneHead=0;swimlaneBody=0;fillColor=none;collapsible=0;dropTarget=0;points=[[0,0.5],[1,0.5]];portConstraint=eastwest;top=0;left=0;right=0;bottom=1;" parent="rzyrujMYmJVa373s-Boa-14" vertex="1">
          <mxGeometry y="30" width="180" height="30" as="geometry" />
        </mxCell>
        <mxCell id="rzyrujMYmJVa373s-Boa-16" value="PK" style="shape=partialRectangle;connectable=0;fillColor=none;top=0;left=0;bottom=0;right=0;fontStyle=1;overflow=hidden;whiteSpace=wrap;html=1;" parent="rzyrujMYmJVa373s-Boa-15" vertex="1">
          <mxGeometry width="30" height="30" as="geometry">
            <mxRectangle width="30" height="30" as="alternateBounds" />
          </mxGeometry>
        </mxCell>
        <mxCell id="rzyrujMYmJVa373s-Boa-17" value="TelefoneID" style="shape=partialRectangle;connectable=0;fillColor=none;top=0;left=0;bottom=0;right=0;align=left;spacingLeft=6;fontStyle=5;overflow=hidden;whiteSpace=wrap;html=1;" parent="rzyrujMYmJVa373s-Boa-15" vertex="1">
          <mxGeometry x="30" width="150" height="30" as="geometry">
            <mxRectangle width="150" height="30" as="alternateBounds" />
          </mxGeometry>
        </mxCell>
        <mxCell id="rzyrujMYmJVa373s-Boa-67" style="shape=tableRow;horizontal=0;startSize=0;swimlaneHead=0;swimlaneBody=0;fillColor=none;collapsible=0;dropTarget=0;points=[[0,0.5],[1,0.5]];portConstraint=eastwest;top=0;left=0;right=0;bottom=1;" parent="rzyrujMYmJVa373s-Boa-14" vertex="1">
          <mxGeometry y="60" width="180" height="30" as="geometry" />
        </mxCell>
        <mxCell id="rzyrujMYmJVa373s-Boa-68" value="FK" style="shape=partialRectangle;connectable=0;fillColor=none;top=0;left=0;bottom=0;right=0;fontStyle=1;overflow=hidden;whiteSpace=wrap;html=1;" parent="rzyrujMYmJVa373s-Boa-67" vertex="1">
          <mxGeometry width="30" height="30" as="geometry">
            <mxRectangle width="30" height="30" as="alternateBounds" />
          </mxGeometry>
        </mxCell>
        <mxCell id="rzyrujMYmJVa373s-Boa-69" value="PessoaID" style="shape=partialRectangle;connectable=0;fillColor=none;top=0;left=0;bottom=0;right=0;align=left;spacingLeft=6;fontStyle=5;overflow=hidden;whiteSpace=wrap;html=1;" parent="rzyrujMYmJVa373s-Boa-67" vertex="1">
          <mxGeometry x="30" width="150" height="30" as="geometry">
            <mxRectangle width="150" height="30" as="alternateBounds" />
          </mxGeometry>
        </mxCell>
        <mxCell id="rzyrujMYmJVa373s-Boa-18" value="" style="shape=tableRow;horizontal=0;startSize=0;swimlaneHead=0;swimlaneBody=0;fillColor=none;collapsible=0;dropTarget=0;points=[[0,0.5],[1,0.5]];portConstraint=eastwest;top=0;left=0;right=0;bottom=0;" parent="rzyrujMYmJVa373s-Boa-14" vertex="1">
          <mxGeometry y="90" width="180" height="30" as="geometry" />
        </mxCell>
        <mxCell id="rzyrujMYmJVa373s-Boa-19" value="" style="shape=partialRectangle;connectable=0;fillColor=none;top=0;left=0;bottom=0;right=0;editable=1;overflow=hidden;whiteSpace=wrap;html=1;" parent="rzyrujMYmJVa373s-Boa-18" vertex="1">
          <mxGeometry width="30" height="30" as="geometry">
            <mxRectangle width="30" height="30" as="alternateBounds" />
          </mxGeometry>
        </mxCell>
        <mxCell id="rzyrujMYmJVa373s-Boa-20" value="TelefoneNumero" style="shape=partialRectangle;connectable=0;fillColor=none;top=0;left=0;bottom=0;right=0;align=left;spacingLeft=6;overflow=hidden;whiteSpace=wrap;html=1;" parent="rzyrujMYmJVa373s-Boa-18" vertex="1">
          <mxGeometry x="30" width="150" height="30" as="geometry">
            <mxRectangle width="150" height="30" as="alternateBounds" />
          </mxGeometry>
        </mxCell>
        <mxCell id="rzyrujMYmJVa373s-Boa-27" value="Email" style="shape=table;startSize=30;container=1;collapsible=1;childLayout=tableLayout;fixedRows=1;rowLines=0;fontStyle=1;align=center;resizeLast=1;html=1;" parent="1" vertex="1">
          <mxGeometry x="470" y="735" width="180" height="120" as="geometry" />
        </mxCell>
        <mxCell id="rzyrujMYmJVa373s-Boa-28" value="" style="shape=tableRow;horizontal=0;startSize=0;swimlaneHead=0;swimlaneBody=0;fillColor=none;collapsible=0;dropTarget=0;points=[[0,0.5],[1,0.5]];portConstraint=eastwest;top=0;left=0;right=0;bottom=1;" parent="rzyrujMYmJVa373s-Boa-27" vertex="1">
          <mxGeometry y="30" width="180" height="30" as="geometry" />
        </mxCell>
        <mxCell id="rzyrujMYmJVa373s-Boa-29" value="PK" style="shape=partialRectangle;connectable=0;fillColor=none;top=0;left=0;bottom=0;right=0;fontStyle=1;overflow=hidden;whiteSpace=wrap;html=1;" parent="rzyrujMYmJVa373s-Boa-28" vertex="1">
          <mxGeometry width="30" height="30" as="geometry">
            <mxRectangle width="30" height="30" as="alternateBounds" />
          </mxGeometry>
        </mxCell>
        <mxCell id="rzyrujMYmJVa373s-Boa-30" value="EmailID" style="shape=partialRectangle;connectable=0;fillColor=none;top=0;left=0;bottom=0;right=0;align=left;spacingLeft=6;fontStyle=5;overflow=hidden;whiteSpace=wrap;html=1;" parent="rzyrujMYmJVa373s-Boa-28" vertex="1">
          <mxGeometry x="30" width="150" height="30" as="geometry">
            <mxRectangle width="150" height="30" as="alternateBounds" />
          </mxGeometry>
        </mxCell>
        <mxCell id="rzyrujMYmJVa373s-Boa-71" style="shape=tableRow;horizontal=0;startSize=0;swimlaneHead=0;swimlaneBody=0;fillColor=none;collapsible=0;dropTarget=0;points=[[0,0.5],[1,0.5]];portConstraint=eastwest;top=0;left=0;right=0;bottom=1;" parent="rzyrujMYmJVa373s-Boa-27" vertex="1">
          <mxGeometry y="60" width="180" height="30" as="geometry" />
        </mxCell>
        <mxCell id="rzyrujMYmJVa373s-Boa-72" value="FK" style="shape=partialRectangle;connectable=0;fillColor=none;top=0;left=0;bottom=0;right=0;fontStyle=1;overflow=hidden;whiteSpace=wrap;html=1;" parent="rzyrujMYmJVa373s-Boa-71" vertex="1">
          <mxGeometry width="30" height="30" as="geometry">
            <mxRectangle width="30" height="30" as="alternateBounds" />
          </mxGeometry>
        </mxCell>
        <mxCell id="rzyrujMYmJVa373s-Boa-73" value="PessoaID" style="shape=partialRectangle;connectable=0;fillColor=none;top=0;left=0;bottom=0;right=0;align=left;spacingLeft=6;fontStyle=5;overflow=hidden;whiteSpace=wrap;html=1;" parent="rzyrujMYmJVa373s-Boa-71" vertex="1">
          <mxGeometry x="30" width="150" height="30" as="geometry">
            <mxRectangle width="150" height="30" as="alternateBounds" />
          </mxGeometry>
        </mxCell>
        <mxCell id="rzyrujMYmJVa373s-Boa-31" value="" style="shape=tableRow;horizontal=0;startSize=0;swimlaneHead=0;swimlaneBody=0;fillColor=none;collapsible=0;dropTarget=0;points=[[0,0.5],[1,0.5]];portConstraint=eastwest;top=0;left=0;right=0;bottom=0;" parent="rzyrujMYmJVa373s-Boa-27" vertex="1">
          <mxGeometry y="90" width="180" height="30" as="geometry" />
        </mxCell>
        <mxCell id="rzyrujMYmJVa373s-Boa-32" value="" style="shape=partialRectangle;connectable=0;fillColor=none;top=0;left=0;bottom=0;right=0;editable=1;overflow=hidden;whiteSpace=wrap;html=1;" parent="rzyrujMYmJVa373s-Boa-31" vertex="1">
          <mxGeometry width="30" height="30" as="geometry">
            <mxRectangle width="30" height="30" as="alternateBounds" />
          </mxGeometry>
        </mxCell>
        <mxCell id="rzyrujMYmJVa373s-Boa-33" value="Email" style="shape=partialRectangle;connectable=0;fillColor=none;top=0;left=0;bottom=0;right=0;align=left;spacingLeft=6;overflow=hidden;whiteSpace=wrap;html=1;" parent="rzyrujMYmJVa373s-Boa-31" vertex="1">
          <mxGeometry x="30" width="150" height="30" as="geometry">
            <mxRectangle width="150" height="30" as="alternateBounds" />
          </mxGeometry>
        </mxCell>
        <mxCell id="rzyrujMYmJVa373s-Boa-57" value="" style="edgeStyle=entityRelationEdgeStyle;fontSize=12;html=1;endArrow=ERoneToMany;rounded=0;entryX=1;entryY=0.5;entryDx=0;entryDy=0;exitX=0;exitY=0.5;exitDx=0;exitDy=0;" parent="1" source="rzyrujMYmJVa373s-Boa-67" target="rzyrujMYmJVa373s-Boa-2" edge="1">
          <mxGeometry width="100" height="100" relative="1" as="geometry">
            <mxPoint x="510" y="415" as="sourcePoint" />
            <mxPoint x="330" y="445" as="targetPoint" />
            <Array as="points">
              <mxPoint x="440" y="840" />
            </Array>
          </mxGeometry>
        </mxCell>
        <mxCell id="rzyrujMYmJVa373s-Boa-70" value="" style="edgeStyle=entityRelationEdgeStyle;fontSize=12;html=1;endArrow=ERoneToMany;rounded=0;exitX=0;exitY=0.5;exitDx=0;exitDy=0;" parent="1" source="rzyrujMYmJVa373s-Boa-71" target="rzyrujMYmJVa373s-Boa-2" edge="1">
          <mxGeometry width="100" height="100" relative="1" as="geometry">
            <mxPoint x="500" y="725" as="sourcePoint" />
            <mxPoint x="350" y="705" as="targetPoint" />
            <Array as="points">
              <mxPoint x="450" y="850" />
            </Array>
          </mxGeometry>
        </mxCell>
        <mxCell id="rzyrujMYmJVa373s-Boa-74" value="Pessoa" style="shape=table;startSize=30;container=1;collapsible=0;childLayout=tableLayout;strokeColor=default;fontSize=16;" parent="1" vertex="1">
          <mxGeometry x="40" y="890" width="420" height="100" as="geometry" />
        </mxCell>
        <mxCell id="rzyrujMYmJVa373s-Boa-75" value="" style="shape=tableRow;horizontal=0;startSize=0;swimlaneHead=0;swimlaneBody=0;strokeColor=inherit;top=0;left=0;bottom=0;right=0;collapsible=0;dropTarget=0;fillColor=none;points=[[0,0.5],[1,0.5]];portConstraint=eastwest;fontSize=16;" parent="rzyrujMYmJVa373s-Boa-74" vertex="1">
          <mxGeometry y="30" width="420" height="24" as="geometry" />
        </mxCell>
        <mxCell id="rzyrujMYmJVa373s-Boa-76" value="PessoaID" style="shape=partialRectangle;html=1;whiteSpace=wrap;connectable=0;strokeColor=inherit;overflow=hidden;fillColor=none;top=0;left=0;bottom=0;right=0;pointerEvents=1;fontSize=16;" parent="rzyrujMYmJVa373s-Boa-75" vertex="1">
          <mxGeometry width="86" height="24" as="geometry">
            <mxRectangle width="86" height="24" as="alternateBounds" />
          </mxGeometry>
        </mxCell>
        <mxCell id="rzyrujMYmJVa373s-Boa-77" value="NomePessoa" style="shape=partialRectangle;html=1;whiteSpace=wrap;connectable=0;strokeColor=inherit;overflow=hidden;fillColor=none;top=0;left=0;bottom=0;right=0;pointerEvents=1;fontSize=16;" parent="rzyrujMYmJVa373s-Boa-75" vertex="1">
          <mxGeometry x="86" width="215" height="24" as="geometry">
            <mxRectangle width="215" height="24" as="alternateBounds" />
          </mxGeometry>
        </mxCell>
        <mxCell id="rzyrujMYmJVa373s-Boa-78" value="CNH" style="shape=partialRectangle;html=1;whiteSpace=wrap;connectable=0;strokeColor=inherit;overflow=hidden;fillColor=none;top=0;left=0;bottom=0;right=0;pointerEvents=1;fontSize=16;" parent="rzyrujMYmJVa373s-Boa-75" vertex="1">
          <mxGeometry x="301" width="119" height="24" as="geometry">
            <mxRectangle width="119" height="24" as="alternateBounds" />
          </mxGeometry>
        </mxCell>
        <mxCell id="rzyrujMYmJVa373s-Boa-79" value="" style="shape=tableRow;horizontal=0;startSize=0;swimlaneHead=0;swimlaneBody=0;strokeColor=inherit;top=0;left=0;bottom=0;right=0;collapsible=0;dropTarget=0;fillColor=none;points=[[0,0.5],[1,0.5]];portConstraint=eastwest;fontSize=16;" parent="rzyrujMYmJVa373s-Boa-74" vertex="1">
          <mxGeometry y="54" width="420" height="22" as="geometry" />
        </mxCell>
        <mxCell id="rzyrujMYmJVa373s-Boa-80" value="1" style="shape=partialRectangle;html=1;whiteSpace=wrap;connectable=0;strokeColor=inherit;overflow=hidden;fillColor=none;top=0;left=0;bottom=0;right=0;pointerEvents=1;fontSize=16;" parent="rzyrujMYmJVa373s-Boa-79" vertex="1">
          <mxGeometry width="86" height="22" as="geometry">
            <mxRectangle width="86" height="22" as="alternateBounds" />
          </mxGeometry>
        </mxCell>
        <mxCell id="rzyrujMYmJVa373s-Boa-81" value="Jailton caio" style="shape=partialRectangle;html=1;whiteSpace=wrap;connectable=0;strokeColor=inherit;overflow=hidden;fillColor=none;top=0;left=0;bottom=0;right=0;pointerEvents=1;fontSize=16;" parent="rzyrujMYmJVa373s-Boa-79" vertex="1">
          <mxGeometry x="86" width="215" height="22" as="geometry">
            <mxRectangle width="215" height="22" as="alternateBounds" />
          </mxGeometry>
        </mxCell>
        <mxCell id="rzyrujMYmJVa373s-Boa-82" value="30035" style="shape=partialRectangle;html=1;whiteSpace=wrap;connectable=0;strokeColor=inherit;overflow=hidden;fillColor=none;top=0;left=0;bottom=0;right=0;pointerEvents=1;fontSize=16;" parent="rzyrujMYmJVa373s-Boa-79" vertex="1">
          <mxGeometry x="301" width="119" height="22" as="geometry">
            <mxRectangle width="119" height="22" as="alternateBounds" />
          </mxGeometry>
        </mxCell>
        <mxCell id="rzyrujMYmJVa373s-Boa-83" value="" style="shape=tableRow;horizontal=0;startSize=0;swimlaneHead=0;swimlaneBody=0;strokeColor=inherit;top=0;left=0;bottom=0;right=0;collapsible=0;dropTarget=0;fillColor=none;points=[[0,0.5],[1,0.5]];portConstraint=eastwest;fontSize=16;" parent="rzyrujMYmJVa373s-Boa-74" vertex="1">
          <mxGeometry y="76" width="420" height="24" as="geometry" />
        </mxCell>
        <mxCell id="rzyrujMYmJVa373s-Boa-84" value="2" style="shape=partialRectangle;html=1;whiteSpace=wrap;connectable=0;strokeColor=inherit;overflow=hidden;fillColor=none;top=0;left=0;bottom=0;right=0;pointerEvents=1;fontSize=16;" parent="rzyrujMYmJVa373s-Boa-83" vertex="1">
          <mxGeometry width="86" height="24" as="geometry">
            <mxRectangle width="86" height="24" as="alternateBounds" />
          </mxGeometry>
        </mxCell>
        <mxCell id="rzyrujMYmJVa373s-Boa-85" value="Pedro bispo" style="shape=partialRectangle;html=1;whiteSpace=wrap;connectable=0;strokeColor=inherit;overflow=hidden;fillColor=none;top=0;left=0;bottom=0;right=0;pointerEvents=1;fontSize=16;" parent="rzyrujMYmJVa373s-Boa-83" vertex="1">
          <mxGeometry x="86" width="215" height="24" as="geometry">
            <mxRectangle width="215" height="24" as="alternateBounds" />
          </mxGeometry>
        </mxCell>
        <mxCell id="rzyrujMYmJVa373s-Boa-86" value="800808080" style="shape=partialRectangle;html=1;whiteSpace=wrap;connectable=0;strokeColor=inherit;overflow=hidden;fillColor=none;top=0;left=0;bottom=0;right=0;pointerEvents=1;fontSize=16;" parent="rzyrujMYmJVa373s-Boa-83" vertex="1">
          <mxGeometry x="301" width="119" height="24" as="geometry">
            <mxRectangle width="119" height="24" as="alternateBounds" />
          </mxGeometry>
        </mxCell>
        <mxCell id="rzyrujMYmJVa373s-Boa-90" value="Telefone" style="shape=table;startSize=30;container=1;collapsible=0;childLayout=tableLayout;strokeColor=default;fontSize=16;" parent="1" vertex="1">
          <mxGeometry x="50" y="1030" width="320" height="94.5" as="geometry" />
        </mxCell>
        <mxCell id="rzyrujMYmJVa373s-Boa-91" value="" style="shape=tableRow;horizontal=0;startSize=0;swimlaneHead=0;swimlaneBody=0;strokeColor=inherit;top=0;left=0;bottom=0;right=0;collapsible=0;dropTarget=0;fillColor=none;points=[[0,0.5],[1,0.5]];portConstraint=eastwest;fontSize=16;" parent="rzyrujMYmJVa373s-Boa-90" vertex="1">
          <mxGeometry y="30" width="320" height="22" as="geometry" />
        </mxCell>
        <mxCell id="rzyrujMYmJVa373s-Boa-119" value="TelefoneID" style="shape=partialRectangle;html=1;whiteSpace=wrap;connectable=0;strokeColor=inherit;overflow=hidden;fillColor=none;top=0;left=0;bottom=0;right=0;pointerEvents=1;fontSize=16;" parent="rzyrujMYmJVa373s-Boa-91" vertex="1">
          <mxGeometry width="86" height="22" as="geometry">
            <mxRectangle width="86" height="22" as="alternateBounds" />
          </mxGeometry>
        </mxCell>
        <mxCell id="rzyrujMYmJVa373s-Boa-92" value="PessoaID" style="shape=partialRectangle;html=1;whiteSpace=wrap;connectable=0;strokeColor=inherit;overflow=hidden;fillColor=none;top=0;left=0;bottom=0;right=0;pointerEvents=1;fontSize=16;" parent="rzyrujMYmJVa373s-Boa-91" vertex="1">
          <mxGeometry x="86" width="86" height="22" as="geometry">
            <mxRectangle width="86" height="22" as="alternateBounds" />
          </mxGeometry>
        </mxCell>
        <mxCell id="rzyrujMYmJVa373s-Boa-93" value="Telefone" style="shape=partialRectangle;html=1;whiteSpace=wrap;connectable=0;strokeColor=inherit;overflow=hidden;fillColor=none;top=0;left=0;bottom=0;right=0;pointerEvents=1;fontSize=16;" parent="rzyrujMYmJVa373s-Boa-91" vertex="1">
          <mxGeometry x="172" width="148" height="22" as="geometry">
            <mxRectangle width="148" height="22" as="alternateBounds" />
          </mxGeometry>
        </mxCell>
        <mxCell id="rzyrujMYmJVa373s-Boa-95" value="" style="shape=tableRow;horizontal=0;startSize=0;swimlaneHead=0;swimlaneBody=0;strokeColor=inherit;top=0;left=0;bottom=0;right=0;collapsible=0;dropTarget=0;fillColor=none;points=[[0,0.5],[1,0.5]];portConstraint=eastwest;fontSize=16;" parent="rzyrujMYmJVa373s-Boa-90" vertex="1">
          <mxGeometry y="52" width="320" height="21" as="geometry" />
        </mxCell>
        <mxCell id="rzyrujMYmJVa373s-Boa-120" value="1" style="shape=partialRectangle;html=1;whiteSpace=wrap;connectable=0;strokeColor=inherit;overflow=hidden;fillColor=none;top=0;left=0;bottom=0;right=0;pointerEvents=1;fontSize=16;" parent="rzyrujMYmJVa373s-Boa-95" vertex="1">
          <mxGeometry width="86" height="21" as="geometry">
            <mxRectangle width="86" height="21" as="alternateBounds" />
          </mxGeometry>
        </mxCell>
        <mxCell id="rzyrujMYmJVa373s-Boa-96" value="2" style="shape=partialRectangle;html=1;whiteSpace=wrap;connectable=0;strokeColor=inherit;overflow=hidden;fillColor=none;top=0;left=0;bottom=0;right=0;pointerEvents=1;fontSize=16;" parent="rzyrujMYmJVa373s-Boa-95" vertex="1">
          <mxGeometry x="86" width="86" height="21" as="geometry">
            <mxRectangle width="86" height="21" as="alternateBounds" />
          </mxGeometry>
        </mxCell>
        <mxCell id="rzyrujMYmJVa373s-Boa-97" value="5726723648" style="shape=partialRectangle;html=1;whiteSpace=wrap;connectable=0;strokeColor=inherit;overflow=hidden;fillColor=none;top=0;left=0;bottom=0;right=0;pointerEvents=1;fontSize=16;" parent="rzyrujMYmJVa373s-Boa-95" vertex="1">
          <mxGeometry x="172" width="148" height="21" as="geometry">
            <mxRectangle width="148" height="21" as="alternateBounds" />
          </mxGeometry>
        </mxCell>
        <mxCell id="rzyrujMYmJVa373s-Boa-99" value="" style="shape=tableRow;horizontal=0;startSize=0;swimlaneHead=0;swimlaneBody=0;strokeColor=inherit;top=0;left=0;bottom=0;right=0;collapsible=0;dropTarget=0;fillColor=none;points=[[0,0.5],[1,0.5]];portConstraint=eastwest;fontSize=16;" parent="rzyrujMYmJVa373s-Boa-90" vertex="1">
          <mxGeometry y="73" width="320" height="22" as="geometry" />
        </mxCell>
        <mxCell id="rzyrujMYmJVa373s-Boa-121" value="2" style="shape=partialRectangle;html=1;whiteSpace=wrap;connectable=0;strokeColor=inherit;overflow=hidden;fillColor=none;top=0;left=0;bottom=0;right=0;pointerEvents=1;fontSize=16;" parent="rzyrujMYmJVa373s-Boa-99" vertex="1">
          <mxGeometry width="86" height="22" as="geometry">
            <mxRectangle width="86" height="22" as="alternateBounds" />
          </mxGeometry>
        </mxCell>
        <mxCell id="rzyrujMYmJVa373s-Boa-100" value="1" style="shape=partialRectangle;html=1;whiteSpace=wrap;connectable=0;strokeColor=inherit;overflow=hidden;fillColor=none;top=0;left=0;bottom=0;right=0;pointerEvents=1;fontSize=16;" parent="rzyrujMYmJVa373s-Boa-99" vertex="1">
          <mxGeometry x="86" width="86" height="22" as="geometry">
            <mxRectangle width="86" height="22" as="alternateBounds" />
          </mxGeometry>
        </mxCell>
        <mxCell id="rzyrujMYmJVa373s-Boa-101" value="8719237492" style="shape=partialRectangle;html=1;whiteSpace=wrap;connectable=0;strokeColor=inherit;overflow=hidden;fillColor=none;top=0;left=0;bottom=0;right=0;pointerEvents=1;fontSize=16;" parent="rzyrujMYmJVa373s-Boa-99" vertex="1">
          <mxGeometry x="172" width="148" height="22" as="geometry">
            <mxRectangle width="148" height="22" as="alternateBounds" />
          </mxGeometry>
        </mxCell>
        <mxCell id="rzyrujMYmJVa373s-Boa-122" value="Email" style="shape=table;startSize=30;container=1;collapsible=0;childLayout=tableLayout;strokeColor=default;fontSize=16;" parent="1" vertex="1">
          <mxGeometry x="430" y="1030" width="340" height="94.5" as="geometry" />
        </mxCell>
        <mxCell id="rzyrujMYmJVa373s-Boa-123" value="" style="shape=tableRow;horizontal=0;startSize=0;swimlaneHead=0;swimlaneBody=0;strokeColor=inherit;top=0;left=0;bottom=0;right=0;collapsible=0;dropTarget=0;fillColor=none;points=[[0,0.5],[1,0.5]];portConstraint=eastwest;fontSize=16;" parent="rzyrujMYmJVa373s-Boa-122" vertex="1">
          <mxGeometry y="30" width="340" height="21" as="geometry" />
        </mxCell>
        <mxCell id="rzyrujMYmJVa373s-Boa-124" value="EmailID" style="shape=partialRectangle;html=1;whiteSpace=wrap;connectable=0;strokeColor=inherit;overflow=hidden;fillColor=none;top=0;left=0;bottom=0;right=0;pointerEvents=1;fontSize=16;" parent="rzyrujMYmJVa373s-Boa-123" vertex="1">
          <mxGeometry width="70" height="21" as="geometry">
            <mxRectangle width="70" height="21" as="alternateBounds" />
          </mxGeometry>
        </mxCell>
        <mxCell id="rzyrujMYmJVa373s-Boa-125" value="PessoaID" style="shape=partialRectangle;html=1;whiteSpace=wrap;connectable=0;strokeColor=inherit;overflow=hidden;fillColor=none;top=0;left=0;bottom=0;right=0;pointerEvents=1;fontSize=16;" parent="rzyrujMYmJVa373s-Boa-123" vertex="1">
          <mxGeometry x="70" width="80" height="21" as="geometry">
            <mxRectangle width="80" height="21" as="alternateBounds" />
          </mxGeometry>
        </mxCell>
        <mxCell id="rzyrujMYmJVa373s-Boa-126" value="Telefone" style="shape=partialRectangle;html=1;whiteSpace=wrap;connectable=0;strokeColor=inherit;overflow=hidden;fillColor=none;top=0;left=0;bottom=0;right=0;pointerEvents=1;fontSize=16;" parent="rzyrujMYmJVa373s-Boa-123" vertex="1">
          <mxGeometry x="150" width="190" height="21" as="geometry">
            <mxRectangle width="190" height="21" as="alternateBounds" />
          </mxGeometry>
        </mxCell>
        <mxCell id="rzyrujMYmJVa373s-Boa-127" value="" style="shape=tableRow;horizontal=0;startSize=0;swimlaneHead=0;swimlaneBody=0;strokeColor=inherit;top=0;left=0;bottom=0;right=0;collapsible=0;dropTarget=0;fillColor=none;points=[[0,0.5],[1,0.5]];portConstraint=eastwest;fontSize=16;" parent="rzyrujMYmJVa373s-Boa-122" vertex="1">
          <mxGeometry y="51" width="340" height="21" as="geometry" />
        </mxCell>
        <mxCell id="rzyrujMYmJVa373s-Boa-128" value="1" style="shape=partialRectangle;html=1;whiteSpace=wrap;connectable=0;strokeColor=inherit;overflow=hidden;fillColor=none;top=0;left=0;bottom=0;right=0;pointerEvents=1;fontSize=16;" parent="rzyrujMYmJVa373s-Boa-127" vertex="1">
          <mxGeometry width="70" height="21" as="geometry">
            <mxRectangle width="70" height="21" as="alternateBounds" />
          </mxGeometry>
        </mxCell>
        <mxCell id="rzyrujMYmJVa373s-Boa-129" value="2" style="shape=partialRectangle;html=1;whiteSpace=wrap;connectable=0;strokeColor=inherit;overflow=hidden;fillColor=none;top=0;left=0;bottom=0;right=0;pointerEvents=1;fontSize=16;" parent="rzyrujMYmJVa373s-Boa-127" vertex="1">
          <mxGeometry x="70" width="80" height="21" as="geometry">
            <mxRectangle width="80" height="21" as="alternateBounds" />
          </mxGeometry>
        </mxCell>
        <mxCell id="rzyrujMYmJVa373s-Boa-130" value="5726723648@gmail.com" style="shape=partialRectangle;html=1;whiteSpace=wrap;connectable=0;strokeColor=inherit;overflow=hidden;fillColor=none;top=0;left=0;bottom=0;right=0;pointerEvents=1;fontSize=16;" parent="rzyrujMYmJVa373s-Boa-127" vertex="1">
          <mxGeometry x="150" width="190" height="21" as="geometry">
            <mxRectangle width="190" height="21" as="alternateBounds" />
          </mxGeometry>
        </mxCell>
        <mxCell id="rzyrujMYmJVa373s-Boa-131" value="" style="shape=tableRow;horizontal=0;startSize=0;swimlaneHead=0;swimlaneBody=0;strokeColor=inherit;top=0;left=0;bottom=0;right=0;collapsible=0;dropTarget=0;fillColor=none;points=[[0,0.5],[1,0.5]];portConstraint=eastwest;fontSize=16;" parent="rzyrujMYmJVa373s-Boa-122" vertex="1">
          <mxGeometry y="72" width="340" height="23" as="geometry" />
        </mxCell>
        <mxCell id="rzyrujMYmJVa373s-Boa-132" value="2" style="shape=partialRectangle;html=1;whiteSpace=wrap;connectable=0;strokeColor=inherit;overflow=hidden;fillColor=none;top=0;left=0;bottom=0;right=0;pointerEvents=1;fontSize=16;" parent="rzyrujMYmJVa373s-Boa-131" vertex="1">
          <mxGeometry width="70" height="23" as="geometry">
            <mxRectangle width="70" height="23" as="alternateBounds" />
          </mxGeometry>
        </mxCell>
        <mxCell id="rzyrujMYmJVa373s-Boa-133" value="1" style="shape=partialRectangle;html=1;whiteSpace=wrap;connectable=0;strokeColor=inherit;overflow=hidden;fillColor=none;top=0;left=0;bottom=0;right=0;pointerEvents=1;fontSize=16;" parent="rzyrujMYmJVa373s-Boa-131" vertex="1">
          <mxGeometry x="70" width="80" height="23" as="geometry">
            <mxRectangle width="80" height="23" as="alternateBounds" />
          </mxGeometry>
        </mxCell>
        <mxCell id="rzyrujMYmJVa373s-Boa-134" value="8719237492@gmail.com" style="shape=partialRectangle;html=1;whiteSpace=wrap;connectable=0;strokeColor=inherit;overflow=hidden;fillColor=none;top=0;left=0;bottom=0;right=0;pointerEvents=1;fontSize=16;" parent="rzyrujMYmJVa373s-Boa-131" vertex="1">
          <mxGeometry x="150" width="190" height="23" as="geometry">
            <mxRectangle width="190" height="23" as="alternateBounds" />
          </mxGeometry>
        </mxCell>
      </root>
    </mxGraphModel>
  </diagram>
</mxfile>
